<?xml version="1.0" encoding="UTF-8" standalone="no"?>
<!DOCTYPE svg PUBLIC "-//W3C//DTD SVG 1.1//EN" "http://www.w3.org/Graphics/SVG/1.1/DTD/svg11.dtd">
<svg xmlns="http://www.w3.org/2000/svg" version="1.1" viewBox="0.00 0.00 1448.00 1448.00">
<circle fill="#2b8cf8" cx="0.00" cy="0.00" transform="translate(690.53,155.75) rotate(-20.2)" r="28.61"/>
<circle fill="#e40041" cx="464" cy="205" r="30" />
<circle fill="#faa80a" cx="606.05" cy="202.07" r="14.29"/>
<circle fill="#faa80a" cx="794.06" cy="229.18" r="7.31"/>
<circle fill="#2b8cf8" cx="744.99" cy="237.86" r="13.36"/>
<circle fill="#2b8cf8" cx="561.81" cy="278.14" r="14.405"/>
<circle fill="#e40041" cx="637.26" cy="300.01" r="13.73"/>
<circle fill="#2b8cf8" cx="355.89" cy="354.41" r="19.33"/>
<circle fill="#faa80a" cx="444.75" cy="364.76" r="18.79"/>
<path fill="#cecece" d="
  M 965.80 745.84
  Q 956.10 756.41 943.99 763.74
  C 929.38 772.58 917.16 770.71 904.35 759.58
  C 890.28 747.36 884.69 728.88 872.25 716.01
  C 863.36 706.82 847.70 698.26 834.31 700.08
  Q 829.11 700.79 823.82 701.25
  Q 823.32 701.30 822.98 700.93
  Q 820.68 698.46 819.86 696.59
  C 814.71 684.78 805.75 670.46 791.34 681.57
  Q 788.38 683.85 785.03 687.20
  A 1.29 1.28 61.4 0 1 782.87 686.56
  C 780.77 676.98 792.54 671.82 800.03 671.10
  C 815.57 669.60 818.84 684.81 824.44 694.11
  A 1.65 1.65 0.0 0 0 825.94 694.91
  C 859.91 693.06 891.14 703.16 919.65 721.32
  C 924.73 724.56 932.25 730.21 938.89 734.26
  A 0.63 0.63 0.0 0 0 939.79 733.97
  C 947.81 715.91 962.86 702.05 982.51 698.01
  Q 989.84 696.50 1004.98 694.38
  C 1043.28 689.01 1071.46 668.28 1091.44 635.71
  C 1095.77 628.66 1093.94 622.99 1087.49 618.29
  C 1075.24 609.38 1059.59 613.90 1047.71 621.19
  C 1010.31 644.14 969.48 668.57 923.94 666.85
  C 897.54 665.85 874.95 659.44 848.71 651.91
  Q 835.77 648.20 830.14 647.20
  C 808.26 643.29 778.94 643.53 766.52 665.53
  C 758.74 679.30 759.42 699.10 764.25 714.03
  C 777.95 756.44 829.19 780.25 866.77 797.71
  C 871.01 799.68 879.73 803.99 880.75 808.99
  C 882.45 817.37 880.18 826.20 882.68 834.65
  C 890.29 860.44 921.30 852.58 937.75 842.95
  C 942.95 839.90 952.27 833.85 955.49 834.82
  Q 955.97 834.97 956.29 835.36
  Q 958.88 838.65 962.64 836.73
  Q 963.13 836.49 963.66 836.60
  C 967.44 837.38 974.24 837.27 974.47 840.25
  Q 974.97 846.57 975.02 852.43
  A 0.80 0.80 0.0 0 0 976.39 852.99
  Q 981.10 848.18 985.83 843.66
  C 991.07 838.64 1005.60 852.24 1010.28 842.31
  C 1015.81 830.57 1009.98 825.15 999.72 820.17
  C 985.50 813.27 969.25 809.50 954.06 805.18
  C 944.72 802.52 935.69 798.94 934.87 787.68
  C 934.51 782.71 937.80 777.77 941.07 774.29
  A 1.22 1.22 0.0 0 1 943.10 774.70
  C 948.82 789.70 954.40 796.83 969.80 801.58
  A 0.22 0.22 0.0 0 0 970.01 801.20
  C 963.66 795.96 959.01 792.37 958.05 783.49
  C 956.61 770.26 962.34 757.88 967.79 745.50
  L 974.74 729.09
  A 0.71 0.70 43.5 0 1 976.02 729.06
  Q 983.23 743.91 991.30 758.94
  C 993.93 763.84 997.65 769.97 1003.44 771.88
  C 1016.90 776.30 1035.46 757.52 1045.61 750.58
  A 0.53 0.53 0.0 0 1 1046.43 751.15
  C 1040.11 775.85 1027.51 804.61 998.88 809.10
  A 0.65 0.65 0.0 0 0 998.64 810.30
  C 1003.46 813.28 1009.88 817.86 1013.02 821.36
  C 1024.30 833.94 1011.20 855.74 1003.30 866.81
  C 998.03 874.21 991.59 880.00 982.73 882.45
  C 965.49 887.23 944.58 880.77 927.88 874.88
  Q 900.42 865.20 872.88 855.76
  C 853.22 849.02 834.58 843.30 814.15 851.73
  C 778.83 866.32 744.02 913.00 760.60 952.67
  A 0.74 0.73 86.8 0 1 759.72 953.66
  Q 752.51 951.61 744.51 952.26
  C 739.04 952.71 736.61 959.72 735.63 965.03
  C 731.63 986.80 730.93 1008.60 728.41 1030.52
  Q 726.39 1048.16 717.72 1062.43
  C 714.74 1067.34 709.52 1074.54 706.40 1080.09
  Q 693.92 1102.29 690.47 1128.05
  A 0.41 0.40 9.0 0 0 690.80 1128.50
  C 869.68 1158.54 1052.21 1093.77 1189.91 980.02
  C 1204.12 968.27 1217.87 955.28 1231.56 942.66
  Q 1233.36 941.00 1231.90 942.97
  Q 1227.39 949.04 1222.36 954.50
  Q 1215.40 962.06 1215.31 962.15
  C 1121.52 1068.29 993.82 1138.53 853.03 1157.30
  C 723.38 1174.57 581.63 1150.40 475.91 1070.11
  C 420.13 1027.74 377.53 964.01 389.53 890.78
  C 389.74 889.45 390.58 887.26 390.49 885.40
  Q 390.46 884.71 389.87 885.06
  C 375.96 893.40 367.06 910.66 363.70 926.00
  C 357.74 953.24 363.07 981.99 374.62 1007.35
  C 402.09 1067.64 455.71 1114.58 512.24 1146.72
  C 608.35 1201.36 721.09 1221.29 830.50 1211.25
  C 981.83 1197.37 1120.02 1130.56 1224.80 1022.05
  C 1310.44 933.35 1370.02 822.14 1393.36 700.23
  Q 1398.03 675.79 1401.89 651.22
  Q 1403.23 642.66 1403.88 633.24
  A 0.20 0.20 0.0 0 1 1404.28 633.24
  C 1404.55 637.25 1403.79 642.01 1403.54 645.10
  C 1399.94 689.63 1390.59 737.51 1378.32 780.02
  C 1340.86 909.76 1269.16 1026.06 1168.48 1116.24
  C 1079.40 1196.03 972.62 1249.26 855.50 1273.23
  C 792.84 1286.05 730.51 1288.74 670.18 1284.61
  Q 630.98 1281.93 586.46 1272.66
  C 460.78 1246.48 340.83 1186.05 248.71 1095.78
  C 233.84 1081.21 219.07 1066.16 205.72 1050.18
  C 120.84 948.60 59.46 822.11 47.19 689.40
  C 45.63 672.53 45.60 655.44 46.05 638.50
  C 46.68 614.54 49.74 591.55 57.18 568.70
  Q 57.31 568.30 57.47 568.69
  Q 57.57 568.92 57.49 569.25
  Q 52.92 588.01 51.20 607.24
  C 41.59 715.26 75.52 827.67 138.09 915.92
  C 173.82 966.32 217.05 1007.77 267.03 1043.46
  Q 299.62 1066.73 331.76 1086.32
  Q 340.52 1091.65 346.80 1096.27
  Q 353.86 1101.47 360.74 1107.01
  Q 362.89 1108.73 360.94 1106.78
  C 349.91 1095.76 338.64 1084.65 328.35 1073.27
  C 284.88 1025.14 246.24 975.63 213.41 920.38
  C 200.11 897.98 186.88 875.58 175.17 852.29
  Q 174.62 851.21 175.49 852.06
  Q 177.42 853.95 178.88 856.14
  C 187.13 868.51 195.19 881.38 203.99 893.00
  Q 235.63 934.80 270.84 973.66
  Q 281.00 984.88 312.10 1016.84
  Q 312.86 1017.62 312.23 1016.73
  C 304.30 1005.56 295.88 994.72 288.74 983.26
  C 243.50 910.69 217.06 830.76 204.57 746.44
  Q 204.30 744.63 204.26 743.25
  A 0.30 0.30 0.0 0 1 204.85 743.16
  Q 210.71 766.25 216.01 788.25
  C 226.35 831.15 247.21 867.59 271.73 903.80
  Q 271.99 904.20 272.33 903.86
  C 291.54 884.43 312.25 868.27 338.19 847.44
  C 364.08 826.67 386.04 794.94 402.08 766.57
  Q 431.51 714.50 460.96 662.43
  C 462.47 659.76 462.27 658.38 460.31 656.21
  Q 436.35 629.68 418.65 598.64
  C 410.60 584.51 403.64 568.01 403.30 551.58
  C 402.72 523.58 427.20 513.26 447.16 500.86
  Q 470.26 486.51 487.16 465.14
  C 508.10 438.63 525.32 409.59 563.67 408.77
  C 576.74 408.49 590.51 409.23 603.29 405.24
  Q 608.41 403.64 619.35 398.52
  C 647.53 385.30 673.40 371.63 704.99 364.94
  C 756.60 354.01 810.57 364.06 858.28 385.00
  Q 876.21 392.87 893.64 401.79
  Q 905.12 407.65 911.77 414.23
  C 917.47 419.87 919.87 435.61 921.98 443.76
  C 923.92 451.20 933.12 455.97 941.10 461.63
  C 942.84 462.86 943.87 463.53 946.12 463.52
  C 999.26 463.26 1029.53 462.47 1068.10 460.83
  C 1084.22 460.15 1117.17 461.03 1124.09 480.22
  Q 1125.54 484.24 1125.48 493.54
  C 1125.38 507.34 1124.18 519.84 1119.73 533.02
  Q 1119.57 533.51 1119.78 533.97
  Q 1123.85 543.10 1122.49 552.50
  Q 1119.55 572.88 1118.16 588.00
  C 1113.45 639.41 1070.18 682.27 1022.16 695.39
  C 999.26 701.65 973.38 697.57 957.37 717.36
  C 954.22 721.25 943.50 736.08 944.91 740.31
  Q 945.08 740.81 945.53 741.07
  Q 954.58 746.28 965.80 745.84
  Z
  M 540.77 780.55
  A 1.10 1.10 0.0 0 1 542.66 779.85
  C 549.98 787.47 558.12 792.68 566.47 798.79
  C 574.07 804.34 579.01 811.43 583.09 819.80
  Q 583.31 820.26 583.81 820.28
  L 615.06 821.95
  A 0.96 0.95 -0.8 0 0 616.06 820.93
  Q 615.17 808.37 609.96 796.94
  A 1.08 1.07 -25.7 0 1 610.46 795.53
  C 621.37 790.08 629.08 790.81 643.29 791.69
  C 661.58 792.83 689.29 797.85 694.90 773.73
  Q 695.86 769.59 692.73 768.50
  C 679.27 763.79 662.74 761.67 647.55 759.56
  Q 641.45 758.71 637.13 757.18
  C 631.32 755.12 624.75 750.52 618.57 751.56
  C 605.18 753.83 594.44 755.11 581.88 751.21
  C 572.27 748.22 581.34 740.99 585.66 738.75
  C 597.87 732.45 606.65 727.63 616.37 719.66
  C 620.92 715.92 628.65 708.16 628.27 702.31
  Q 628.19 701.15 627.07 701.43
  C 614.38 704.58 599.03 707.91 586.07 707.54
  Q 585.53 707.52 585.55 706.99
  C 586.40 683.90 599.27 665.59 609.29 645.80
  Q 610.80 642.83 611.31 640.88
  Q 611.49 640.20 610.82 640.38
  Q 609.34 640.78 607.96 641.48
  Q 597.81 646.62 586.18 649.31
  Q 585.12 649.56 585.08 648.48
  C 584.66 637.63 592.65 630.50 598.81 622.61
  C 607.80 611.07 613.92 599.85 617.70 585.74
  C 621.10 573.05 624.32 563.49 632.99 553.23
  Q 647.63 535.89 664.46 520.19
  A 0.84 0.84 0.0 0 0 663.90 518.74
  Q 661.62 518.70 658.78 519.17
  Q 624.92 524.85 596.44 543.95
  Q 593.79 545.73 588.42 545.98
  Q 587.88 546.01 587.72 545.49
  C 584.29 534.44 589.86 518.18 595.28 509.04
  C 598.60 503.43 604.83 496.83 607.75 490.10
  C 611.35 481.82 611.78 471.36 616.62 464.40
  C 619.11 460.82 625.98 451.98 626.02 448.00
  C 626.13 437.48 632.92 431.00 640.69 425.18
  Q 641.86 424.30 642.17 423.57
  A 1.02 1.02 0.0 0 0 641.03 422.17
  C 625.37 425.26 610.28 429.47 600.98 442.98
  C 594.24 452.76 590.29 469.62 587.56 482.37
  A 1.19 1.18 3.6 0 1 586.49 483.31
  Q 578.33 483.89 569.82 484.71
  C 561.49 485.52 558.84 490.79 557.72 498.51
  Q 556.88 504.31 557.22 524.25
  C 558.21 582.94 574.44 647.01 548.21 702.98
  C 541.96 716.32 527.26 737.45 509.91 723.33
  C 494.41 710.72 485.89 693.70 479.32 675.42
  A 0.69 0.69 0.0 0 0 478.14 675.21
  Q 476.83 676.77 476.36 679.03
  C 469.86 710.42 471.10 744.20 484.14 773.84
  Q 491.64 790.89 498.93 808.04
  Q 518.97 855.18 520.43 907.23
  A 0.51 0.51 0.0 0 0 521.32 907.55
  C 521.58 907.27 522.29 906.70 522.47 906.31
  C 539.14 870.06 549.62 823.11 541.11 783.48
  Q 540.71 781.64 540.77 780.55
  Z
  M 901.61 429.12
  C 901.09 435.91 914.58 451.53 919.77 455.02
  A 0.34 0.33 -85.4 0 0 920.26 454.60
  Q 915.34 443.87 909.54 433.71
  Q 906.86 429.04 902.35 428.51
  Q 901.66 428.44 901.61 429.12
  Z
  M 851.12 465.02
  C 843.30 454.88 839.80 437.59 824.25 437.95
  C 810.23 438.28 800.68 447.23 790.11 455.33
  C 778.90 463.92 765.60 468.54 752.51 472.79
  A 0.88 0.88 0.0 0 0 752.32 474.38
  Q 753.28 474.97 754.98 475.36
  Q 769.42 478.69 783.77 482.44
  C 801.68 487.12 816.24 486.30 835.32 483.36
  Q 854.14 480.47 872.77 478.34
  A 0.96 0.95 -33.0 0 0 873.15 476.57
  C 865.64 472.20 857.32 473.05 851.12 465.02
  Z
  M 1052.49 525.39
  A 1.55 1.55 0.0 0 1 1054.60 524.11
  C 1060.90 526.58 1077.84 533.81 1082.40 525.89
  Q 1089.04 514.36 1091.70 501.23
  C 1093.71 491.28 1082.41 485.13 1075.05 491.31
  Q 1069.73 495.78 1063.64 502.97
  Q 1063.30 503.36 1062.80 503.49
  C 1057.51 504.85 1052.84 500.10 1052.29 495.23
  Q 1051.95 492.20 1053.68 487.93
  C 1057.48 478.53 1063.81 474.64 1072.34 470.01
  A 0.68 0.67 -58.4 0 0 1072.04 468.74
  Q 1043.25 467.95 1024.25 488.96
  C 1020.68 492.91 1018.67 496.68 1018.27 501.77
  C 1017.49 511.69 1029.04 517.22 1033.73 524.76
  C 1036.82 529.72 1038.49 536.04 1032.88 539.91
  C 1027.20 543.84 1034.15 549.76 1037.74 553.01
  Q 1042.80 557.58 1047.34 562.63
  C 1052.60 568.47 1046.93 580.59 1039.31 581.28
  C 1036.35 581.54 1033.17 579.56 1029.69 579.42
  Q 1028.99 579.39 1029.24 580.05
  Q 1030.62 583.61 1030.53 587.42
  Q 1030.51 587.96 1030.10 588.30
  C 1025.22 592.27 1020.02 589.23 1015.23 587.03
  A 1.61 1.61 0.0 0 0 1013.01 588.93
  L 1014.98 595.98
  A 1.59 1.57 65.5 0 1 1014.34 597.72
  C 1004.88 604.04 1007.48 613.82 1016.71 618.25
  Q 1017.24 618.50 1017.75 618.24
  L 1020.82 616.70
  Q 1021.31 616.45 1021.84 616.58
  Q 1024.24 617.14 1024.24 619.53
  C 1024.22 625.50 1017.26 626.04 1012.93 625.73
  A 2.02 2.01 5.4 0 0 1010.78 627.50
  Q 1010.45 630.33 1011.53 632.87
  Q 1011.73 633.33 1012.22 633.24
  Q 1017.63 632.20 1020.98 630.52
  Q 1031.95 625.01 1047.22 616.15
  C 1056.77 610.62 1066.58 606.14 1076.38 601.23
  C 1080.27 599.29 1081.99 597.11 1082.44 592.93
  Q 1083.49 583.33 1085.10 573.83
  C 1085.69 570.34 1087.03 568.13 1090.77 568.33
  Q 1091.30 568.36 1091.38 568.88
  Q 1094.42 587.31 1091.68 605.79
  Q 1091.61 606.30 1092.10 606.43
  C 1097.66 607.97 1102.00 573.96 1102.80 569.67
  A 2.06 2.05 89.8 0 1 1104.41 568.04
  Q 1114.71 565.95 1116.03 555.46
  C 1116.65 550.52 1113.73 548.41 1109.41 546.03
  Q 1102.06 541.99 1101.43 532.95
  Q 1100.61 521.20 1102.47 509.61
  C 1102.83 507.38 1102.77 505.26 1102.74 503.10
  A 1.02 1.02 0.0 0 0 1101.01 502.38
  C 1091.67 511.36 1088.81 528.17 1086.91 540.33
  Q 1086.44 543.33 1084.01 543.76
  C 1072.11 545.89 1061.85 541.06 1054.80 531.66
  Q 1052.21 528.20 1052.49 525.39
  Z
  M 447.09 580.95
  Q 437.06 581.05 432.35 572.42
  A 0.86 0.85 -64.7 0 0 430.76 572.99
  Q 431.68 577.73 434.25 582.91
  C 445.65 605.93 462.16 626.48 479.11 645.63
  C 484.61 651.84 487.74 655.46 493.85 658.79
  A 1.52 1.51 42.2 0 0 495.42 658.72
  C 509.13 649.43 506.47 633.50 511.42 619.38
  Q 514.97 609.29 518.74 599.28
  C 523.30 587.18 525.69 575.93 517.90 564.57
  C 513.02 557.46 504.76 546.79 503.99 538.25
  Q 502.04 516.75 504.66 495.40
  C 505.55 488.13 507.61 479.81 509.09 471.97
  Q 509.24 471.17 507.81 471.00
  C 507.54 470.97 506.46 472.13 506.24 472.52
  C 499.11 485.51 492.51 498.88 482.18 509.41
  C 477.56 514.12 472.93 516.27 465.96 518.18
  C 458.24 520.30 451.84 521.21 449.76 530.26
  C 446.28 545.35 446.93 561.66 448.03 577.00
  Q 448.15 578.70 447.80 580.36
  Q 447.68 580.94 447.09 580.95
  Z
  M 895.85 505.69
  C 894.47 508.91 890.54 510.86 887.82 512.83
  C 872.92 523.62 867.61 546.81 864.69 563.82
  Q 864.52 564.80 865.24 564.11
  Q 876.76 552.90 886.18 539.23
  C 893.91 527.99 903.03 513.48 909.64 505.22
  Q 926.94 483.63 954.68 476.17
  Q 955.79 475.87 956.85 475.05
  A 0.56 0.55 27.9 0 0 956.54 474.06
  Q 924.42 471.89 895.75 485.66
  C 893.41 486.78 893.39 487.96 894.02 490.25
  Q 895.98 497.37 896.17 503.99
  Q 896.20 504.87 895.85 505.69
  Z
  M 1119.00 512.75
  C 1119.36 508.36 1119.77 498.96 1116.08 496.40
  A 1.27 1.26 -56.3 0 0 1114.30 496.76
  C 1109.80 503.72 1106.78 521.25 1109.55 528.99
  A 1.46 1.46 0.0 0 0 1111.72 529.72
  C 1118.09 525.58 1118.40 520.06 1119.00 512.75
  Z
  M 547.67 578.42
  C 544.19 553.91 542.10 529.80 540.51 505.06
  A 0.80 0.80 0.0 0 0 538.96 504.84
  C 528.61 533.49 535.35 559.97 548.09 587.32
  Q 548.41 588.01 548.39 587.25
  Q 548.29 582.79 547.67 578.42
  Z
  M 730.43 655.88
  C 754.85 626.28 783.80 605.84 816.74 590.42
  C 817.37 590.13 817.77 589.62 818.22 589.14
  A 0.26 0.25 19.0 0 0 818.01 588.71
  C 792.67 591.12 758.43 597.86 742.34 619.96
  C 735.03 630.01 731.58 643.38 729.75 655.58
  Q 729.54 656.96 730.43 655.88
  Z
  M 1000.85 632.03
  A 3.76 3.76 0.0 0 0 997.09 628.27
  A 3.76 3.76 0.0 0 0 993.33 632.03
  A 3.76 3.76 0.0 0 0 997.09 635.79
  A 3.76 3.76 0.0 0 0 1000.85 632.03
  Z
  M 743.00 686.95
  C 756.13 690.61 749.24 663.75 747.09 658.96
  A 0.76 0.76 0.0 0 0 745.85 658.74
  Q 742.42 662.24 740.92 667.23
  C 739.62 671.56 736.56 685.16 743.00 686.95
  Z
  M 710.73 683.65
  C 704.68 685.79 706.71 717.28 712.49 720.28
  C 716.21 722.21 721.64 720.65 724.51 718.27
  C 732.68 711.50 716.97 681.44 710.73 683.65
  Z
  M 473.68 805.16
  C 476.90 852.66 472.95 899.47 460.80 945.52
  Q 458.99 952.38 456.87 958.97
  A 0.33 0.33 0.0 0 0 457.46 959.26
  C 485.15 918.54 500.91 875.64 483.09 826.84
  Q 479.08 815.83 474.45 804.98
  A 0.40 0.40 0.0 0 0 473.68 805.16
  Z
  M 644.86 976.99
  C 644.09 996.80 646.32 1016.18 649.62 1035.88
  A 0.38 0.38 0.0 0 0 650.37 1035.84
  Q 651.99 1004.80 661.82 974.90
  C 670.81 947.51 686.33 927.10 707.03 907.54
  Q 747.94 868.90 794.85 839.88
  C 796.95 838.57 803.74 835.31 804.78 833.57
  A 0.72 0.72 0.0 0 0 804.33 832.50
  C 779.03 826.31 748.73 832.78 726.19 844.93
  C 677.50 871.17 647.01 921.88 644.86 976.99
  Z
  M 570.37 839.55
  C 566.31 844.60 561.24 861.48 571.09 864.02
  Q 572.81 864.47 574.39 863.77
  C 582.64 860.13 577.16 844.02 572.61 839.43
  A 1.51 1.50 -47.9 0 0 570.37 839.55
  Z
  M 959.0917 846.9035
  A 5.43 4.78 -21.8 0 0 952.2749 844.4818
  A 5.43 4.78 -21.8 0 0 949.0083 850.9365
  A 5.43 4.78 -21.8 0 0 955.8251 853.3582
  A 5.43 4.78 -21.8 0 0 959.0917 846.9035
  Z
  M 534.30 956.83
  C 536.00 971.02 532.00 986.62 526.57 1000.07
  Q 516.34 1025.43 512.83 1033.82
  C 510.72 1038.88 505.38 1051.38 506.38 1056.51
  Q 506.48 1057.01 506.86 1057.35
  L 511.46 1061.36
  A 1.28 1.28 0.0 0 0 513.31 1061.18
  C 529.98 1039.65 548.58 1017.49 549.49 988.74
  Q 550.54 955.48 530.34 929.35
  Q 529.46 928.21 528.76 928.82
  A 0.54 0.52 61.4 0 0 528.61 929.37
  Q 532.65 943.02 534.30 956.83
  Z
  M 596.89 1021.08
  C 600.93 996.88 600.64 970.66 595.13 946.71
  A 0.97 0.96 4.9 0 0 594.55 946.03
  Q 593.27 945.51 592.85 947.52
  C 589.81 962.05 588.76 976.99 587.50 991.76
  C 584.61 1025.74 568.80 1053.61 547.41 1079.26
  A 0.44 0.44 0.0 0 0 547.98 1079.91
  C 570.80 1065.06 592.08 1049.94 596.89 1021.08
  Z
  M 677.95 1043.03
  C 694.82 1035.82 707.24 1022.18 706.48 1002.75
  A 0.34 0.33 -27.2 0 0 705.88 1002.56
  C 703.64 1005.45 701.70 1009.09 699.86 1011.68
  Q 688.86 1027.16 677.59 1042.58
  Q 676.94 1043.47 677.95 1043.03
  Z
  M 649.37 1070.82
  C 649.51 1069.40 650.29 1067.18 649.94 1065.55
  A 0.85 0.84 52.8 0 0 648.36 1065.33
  C 640.00 1081.46 632.04 1097.00 621.69 1111.91
  A 1.24 1.24 0.0 0 0 622.34 1113.80
  C 625.96 1114.90 630.97 1116.64 634.77 1116.33
  C 644.96 1115.50 648.60 1078.40 649.37 1070.82
  Z"
/>
<circle fill="#2b8cf8" cx="259.13" cy="414.90" r="25.22"/>
<path fill="#515151" d="
  M 540.77 780.55
  Q 540.71 781.64 541.11 783.48
  C 549.62 823.11 539.14 870.06 522.47 906.31
  C 522.29 906.70 521.58 907.27 521.32 907.55
  A 0.51 0.51 0.0 0 1 520.43 907.23
  Q 518.97 855.18 498.93 808.04
  Q 491.64 790.89 484.14 773.84
  C 471.10 744.20 469.86 710.42 476.36 679.03
  Q 476.83 676.77 478.14 675.21
  A 0.69 0.69 0.0 0 1 479.32 675.42
  C 485.89 693.70 494.41 710.72 509.91 723.33
  C 527.26 737.45 541.96 716.32 548.21 702.98
  C 574.44 647.01 558.21 582.94 557.22 524.25
  Q 556.88 504.31 557.72 498.51
  C 558.84 490.79 561.49 485.52 569.82 484.71
  Q 578.33 483.89 586.49 483.31
  A 1.19 1.18 3.6 0 0 587.56 482.37
  C 590.29 469.62 594.24 452.76 600.98 442.98
  C 610.28 429.47 625.37 425.26 641.03 422.17
  A 1.02 1.02 0.0 0 1 642.17 423.57
  Q 641.86 424.30 640.69 425.18
  C 632.92 431.00 626.13 437.48 626.02 448.00
  C 625.98 451.98 619.11 460.82 616.62 464.40
  C 611.78 471.36 611.35 481.82 607.75 490.10
  C 604.83 496.83 598.60 503.43 595.28 509.04
  C 589.86 518.18 584.29 534.44 587.72 545.49
  Q 587.88 546.01 588.42 545.98
  Q 593.79 545.73 596.44 543.95
  Q 624.92 524.85 658.78 519.17
  Q 661.62 518.70 663.90 518.74
  A 0.84 0.84 0.0 0 1 664.46 520.19
  Q 647.63 535.89 632.99 553.23
  C 624.32 563.49 621.10 573.05 617.70 585.74
  C 613.92 599.85 607.80 611.07 598.81 622.61
  C 592.65 630.50 584.66 637.63 585.08 648.48
  Q 585.12 649.56 586.18 649.31
  Q 597.81 646.62 607.96 641.48
  Q 609.34 640.78 610.82 640.38
  Q 611.49 640.20 611.31 640.88
  Q 610.80 642.83 609.29 645.80
  C 599.27 665.59 586.40 683.90 585.55 706.99
  Q 585.53 707.52 586.07 707.54
  C 599.03 707.91 614.38 704.58 627.07 701.43
  Q 628.19 701.15 628.27 702.31
  C 628.65 708.16 620.92 715.92 616.37 719.66
  C 606.65 727.63 597.87 732.45 585.66 738.75
  C 581.34 740.99 572.27 748.22 581.88 751.21
  C 594.44 755.11 605.18 753.83 618.57 751.56
  C 624.75 750.52 631.32 755.12 637.13 757.18
  Q 641.45 758.71 647.55 759.56
  C 662.74 761.67 679.27 763.79 692.73 768.50
  Q 695.86 769.59 694.90 773.73
  C 689.29 797.85 661.58 792.83 643.29 791.69
  C 629.08 790.81 621.37 790.08 610.46 795.53
  A 1.08 1.07 -25.7 0 0 609.96 796.94
  Q 615.17 808.37 616.06 820.93
  A 0.96 0.95 -0.8 0 1 615.06 821.95
  L 583.81 820.28
  Q 583.31 820.26 583.09 819.80
  C 579.01 811.43 574.07 804.34 566.47 798.79
  C 558.12 792.68 549.98 787.47 542.66 779.85
  A 1.10 1.10 0.0 0 0 540.77 780.55
  Z"
/>
<path fill="#515151" d="
  M 919.77 455.02
  C 914.58 451.53 901.09 435.91 901.61 429.12
  Q 901.66 428.44 902.35 428.51
  Q 906.86 429.04 909.54 433.71
  Q 915.34 443.87 920.26 454.60
  A 0.34 0.33 -85.4 0 1 919.77 455.02
  Z"
/>
<path fill="#100e0d" d="
  M 851.12 465.02
  C 857.32 473.05 865.64 472.20 873.15 476.57
  A 0.96 0.95 -33.0 0 1 872.77 478.34
  Q 854.14 480.47 835.32 483.36
  C 816.24 486.30 801.68 487.12 783.77 482.44
  Q 769.42 478.69 754.98 475.36
  Q 753.28 474.97 752.32 474.38
  A 0.88 0.88 0.0 0 1 752.51 472.79
  C 765.60 468.54 778.90 463.92 790.11 455.33
  C 800.68 447.23 810.23 438.28 824.25 437.95
  C 839.80 437.59 843.30 454.88 851.12 465.02
  Z
  M 804.77 479.31
  L 805.52 459.69
  A 0.76 0.76 0.0 0 0 804.62 458.91
  Q 795.24 460.58 789.64 468.70
  C 783.16 478.09 799.05 479.61 804.22 479.82
  Q 804.75 479.84 804.77 479.31
  Z
  M 811.23 473.88
  L 814.50 473.50
  A 1.34 1.34 0.0 0 0 815.68 472.02
  L 815.24 468.24
  A 6.08 2.73 83.4 0 0 811.83 462.52
  L 811.32 462.58
  A 6.08 2.73 83.4 0 0 809.30 468.93
  L 809.74 472.71
  A 1.34 1.34 0.0 0 0 811.23 473.88
  Z"
/>
<path fill="#cecece" d="
  M 805.52 459.69
  L 804.77 479.31
  Q 804.75 479.84 804.22 479.82
  C 799.05 479.61 783.16 478.09 789.64 468.70
  Q 795.24 460.58 804.62 458.91
  A 0.76 0.76 0.0 0 1 805.52 459.69
  Z"
/>
<path fill="#cecece" d="
  M 811.23 473.88
  A 1.34 1.34 0.0 0 1 809.74 472.71
  L 809.30 468.93
  A 6.08 2.73 83.4 0 1 811.32 462.58
  L 811.83 462.52
  A 6.08 2.73 83.4 0 1 815.24 468.24
  L 815.68 472.02
  A 1.34 1.34 0.0 0 1 814.50 473.50
  L 811.23 473.88
  Z"
/>
<path fill="#100e0d" d="
  M 1052.49 525.39
  Q 1052.21 528.20 1054.80 531.66
  C 1061.85 541.06 1072.11 545.89 1084.01 543.76
  Q 1086.44 543.33 1086.91 540.33
  C 1088.81 528.17 1091.67 511.36 1101.01 502.38
  A 1.02 1.02 0.0 0 1 1102.74 503.10
  C 1102.77 505.26 1102.83 507.38 1102.47 509.61
  Q 1100.61 521.20 1101.43 532.95
  Q 1102.06 541.99 1109.41 546.03
  C 1113.73 548.41 1116.65 550.52 1116.03 555.46
  Q 1114.71 565.95 1104.41 568.04
  A 2.06 2.05 89.8 0 0 1102.80 569.67
  C 1102.00 573.96 1097.66 607.97 1092.10 606.43
  Q 1091.61 606.30 1091.68 605.79
  Q 1094.42 587.31 1091.38 568.88
  Q 1091.30 568.36 1090.77 568.33
  C 1087.03 568.13 1085.69 570.34 1085.10 573.83
  Q 1083.49 583.33 1082.44 592.93
  C 1081.99 597.11 1080.27 599.29 1076.38 601.23
  C 1066.58 606.14 1056.77 610.62 1047.22 616.15
  Q 1031.95 625.01 1020.98 630.52
  Q 1017.63 632.20 1012.22 633.24
  Q 1011.73 633.33 1011.53 632.87
  Q 1010.45 630.33 1010.78 627.50
  A 2.02 2.01 5.4 0 1 1012.93 625.73
  C 1017.26 626.04 1024.22 625.50 1024.24 619.53
  Q 1024.24 617.14 1021.84 616.58
  Q 1021.31 616.45 1020.82 616.70
  L 1017.75 618.24
  Q 1017.24 618.50 1016.71 618.25
  C 1007.48 613.82 1004.88 604.04 1014.34 597.72
  A 1.59 1.57 65.5 0 0 1014.98 595.98
  L 1013.01 588.93
  A 1.61 1.61 0.0 0 1 1015.23 587.03
  C 1020.02 589.23 1025.22 592.27 1030.10 588.30
  Q 1030.51 587.96 1030.53 587.42
  Q 1030.62 583.61 1029.24 580.05
  Q 1028.99 579.39 1029.69 579.42
  C 1033.17 579.56 1036.35 581.54 1039.31 581.28
  C 1046.93 580.59 1052.60 568.47 1047.34 562.63
  Q 1042.80 557.58 1037.74 553.01
  C 1034.15 549.76 1027.20 543.84 1032.88 539.91
  C 1038.49 536.04 1036.82 529.72 1033.73 524.76
  C 1029.04 517.22 1017.49 511.69 1018.27 501.77
  C 1018.67 496.68 1020.68 492.91 1024.25 488.96
  Q 1043.25 467.95 1072.04 468.74
  A 0.68 0.67 -58.4 0 1 1072.34 470.01
  C 1063.81 474.64 1057.48 478.53 1053.68 487.93
  Q 1051.95 492.20 1052.29 495.23
  C 1052.84 500.10 1057.51 504.85 1062.80 503.49
  Q 1063.30 503.36 1063.64 502.97
  Q 1069.73 495.78 1075.05 491.31
  C 1082.41 485.13 1093.71 491.28 1091.70 501.23
  Q 1089.04 514.36 1082.40 525.89
  C 1077.84 533.81 1060.90 526.58 1054.60 524.11
  A 1.55 1.55 0.0 0 0 1052.49 525.39
  Z"
/>
<path fill="#515151" d="
  M 447.80 580.36
  Q 448.15 578.70 448.03 577.00
  C 446.93 561.66 446.28 545.35 449.76 530.26
  C 451.84 521.21 458.24 520.30 465.96 518.18
  C 472.93 516.27 477.56 514.12 482.18 509.41
  C 492.51 498.88 499.11 485.51 506.24 472.52
  C 506.46 472.13 507.54 470.97 507.81 471.00
  Q 509.24 471.17 509.09 471.97
  C 507.61 479.81 505.55 488.13 504.66 495.40
  Q 502.04 516.75 503.99 538.25
  C 504.76 546.79 513.02 557.46 517.90 564.57
  C 525.69 575.93 523.30 587.18 518.74 599.28
  Q 514.97 609.29 511.42 619.38
  C 506.47 633.50 509.13 649.43 495.42 658.72
  A 1.52 1.51 42.2 0 1 493.85 658.79
  C 487.74 655.46 484.61 651.84 479.11 645.63
  C 462.16 626.48 445.65 605.93 434.25 582.91
  Q 431.68 577.73 430.76 572.99
  A 0.86 0.85 -64.7 0 1 432.35 572.42
  Q 437.06 581.05 447.09 580.95
  Q 447.68 580.94 447.80 580.36
  Z"
/>
<path fill="#515151" d="
  M 895.85 505.69
  Q 896.20 504.87 896.17 503.99
  Q 895.98 497.37 894.02 490.25
  C 893.39 487.96 893.41 486.78 895.75 485.66
  Q 924.42 471.89 956.54 474.06
  A 0.56 0.55 27.9 0 1 956.85 475.05
  Q 955.79 475.87 954.68 476.17
  Q 926.94 483.63 909.64 505.22
  C 903.03 513.48 893.91 527.99 886.18 539.23
  Q 876.76 552.90 865.24 564.11
  Q 864.52 564.80 864.69 563.82
  C 867.61 546.81 872.92 523.62 887.82 512.83
  C 890.54 510.86 894.47 508.91 895.85 505.69
  Z"
/>
<circle fill="#2b8cf8" cx="302.10" cy="491.40" r="13.89"/>
<circle fill="#faa80a" cx="251.44" cy="492.42" r="7.62"/>
<path fill="#100e0d" d="
  M 1119.00 512.75
  C 1118.40 520.06 1118.09 525.58 1111.72 529.72
  A 1.46 1.46 0.0 0 1 1109.55 528.99
  C 1106.78 521.25 1109.80 503.72 1114.30 496.76
  A 1.27 1.26 -56.3 0 1 1116.08 496.40
  C 1119.77 498.96 1119.36 508.36 1119.00 512.75
  Z"
/>
<path fill="#515151" d="
  M 540.51 505.06
  C 542.10 529.80 544.19 553.91 547.67 578.42
  Q 548.29 582.79 548.39 587.25
  Q 548.41 588.01 548.09 587.32
  C 535.35 559.97 528.61 533.49 538.96 504.84
  A 0.80 0.80 0.0 0 1 540.51 505.06
  Z"
/>
<circle fill="#faa80a" cx="210.77" cy="604.21" r="36.70"/>
<path fill="#515151" d="
  M 816.74 590.42
  C 783.80 605.84 754.85 626.28 730.43 655.88
  Q 729.54 656.96 729.75 655.58
  C 731.58 643.38 735.03 630.01 742.34 619.96
  C 758.43 597.86 792.67 591.12 818.01 588.71
  A 0.26 0.25 19.0 0 1 818.22 589.14
  C 817.77 589.62 817.37 590.13 816.74 590.42
  Z"
/>
<path fill="#100e0d" d="
  M 965.80 745.84
  Q 966.55 744.44 967.79 745.50
  C 962.34 757.88 956.61 770.26 958.05 783.49
  C 959.01 792.37 963.66 795.96 970.01 801.20
  A 0.22 0.22 0.0 0 1 969.80 801.58
  C 954.40 796.83 948.82 789.70 943.10 774.70
  A 1.22 1.22 0.0 0 0 941.07 774.29
  C 937.80 777.77 934.51 782.71 934.87 787.68
  C 935.69 798.94 944.72 802.52 954.06 805.18
  C 969.25 809.50 985.50 813.27 999.72 820.17
  C 1009.98 825.15 1015.81 830.57 1010.28 842.31
  C 1005.60 852.24 991.07 838.64 985.83 843.66
  Q 981.10 848.18 976.39 852.99
  A 0.80 0.80 0.0 0 1 975.02 852.43
  Q 974.97 846.57 974.47 840.25
  C 974.24 837.27 967.44 837.38 963.66 836.60
  Q 963.13 836.49 962.64 836.73
  Q 958.88 838.65 956.29 835.36
  Q 955.97 834.97 955.49 834.82
  C 952.27 833.85 942.95 839.90 937.75 842.95
  C 921.30 852.58 890.29 860.44 882.68 834.65
  C 880.18 826.20 882.45 817.37 880.75 808.99
  C 879.73 803.99 871.01 799.68 866.77 797.71
  C 829.19 780.25 777.95 756.44 764.25 714.03
  C 759.42 699.10 758.74 679.30 766.52 665.53
  C 778.94 643.53 808.26 643.29 830.14 647.20
  Q 835.77 648.20 848.71 651.91
  C 874.95 659.44 897.54 665.85 923.94 666.85
  C 969.48 668.57 1010.31 644.14 1047.71 621.19
  C 1059.59 613.90 1075.24 609.38 1087.49 618.29
  C 1093.94 622.99 1095.77 628.66 1091.44 635.71
  C 1071.46 668.28 1043.28 689.01 1004.98 694.38
  Q 989.84 696.50 982.51 698.01
  C 962.86 702.05 947.81 715.91 939.79 733.97
  A 0.63 0.63 0.0 0 1 938.89 734.26
  C 932.25 730.21 924.73 724.56 919.65 721.32
  C 891.14 703.16 859.91 693.06 825.94 694.91
  A 1.65 1.65 0.0 0 1 824.44 694.11
  C 818.84 684.81 815.57 669.60 800.03 671.10
  C 792.54 671.82 780.77 676.98 782.87 686.56
  A 1.29 1.28 61.4 0 0 785.03 687.20
  Q 788.38 683.85 791.34 681.57
  C 805.75 670.46 814.71 684.78 819.86 696.59
  Q 820.68 698.46 822.98 700.93
  Q 823.32 701.30 823.82 701.25
  Q 829.11 700.79 834.31 700.08
  C 847.70 698.26 863.36 706.82 872.25 716.01
  C 884.69 728.88 890.28 747.36 904.35 759.58
  C 917.16 770.71 929.38 772.58 943.99 763.74
  Q 956.10 756.41 965.80 745.84
  Z
  M 810.80 695.98
  C 808.62 690.63 806.49 681.25 798.31 687.41
  Q 791.39 692.61 789.49 694.27
  C 784.10 698.99 801.94 709.61 805.41 711.15
  C 808.46 712.50 816.96 713.87 815.19 707.80
  Q 814.13 704.14 810.80 695.98
  Z
  M 845.96 723.79
  A 0.53 0.53 0.0 0 1 845.34 723.20
  C 845.82 719.21 847.73 707.39 841.50 706.81
  C 831.88 705.93 826.65 713.87 821.20 720.18
  C 818.83 722.93 821.88 725.36 823.84 726.65
  C 841.32 738.07 858.05 748.05 877.75 749.60
  A 0.56 0.55 82.1 0 0 878.31 748.85
  C 876.48 743.88 862.15 703.48 853.39 715.10
  C 852.13 716.77 847.68 723.49 845.96 723.79
  Z"
/>
<circle fill="#100e0d" cx="997.09" cy="632.03" r="3.76"/>
<circle fill="#2b8cf8" cx="1239.20" cy="663.91" r="34.69"/>
<circle fill="#e40041" cx="1163.64" cy="653.53" r="18.06"/>
<circle fill="#e40041" cx="328.48" cy="670.08" r="18.43" />
<path fill="#515151" d="
  M 747.09 658.96
  C 749.24 663.75 756.13 690.61 743.00 686.95
  C 736.56 685.16 739.62 671.56 740.92 667.23
  Q 742.42 662.24 745.85 658.74
  A 0.76 0.76 0.0 0 1 747.09 658.96
  Z"
/>
<path fill="#515151" d="
  M 712.49 720.28
  C 706.71 717.28 704.68 685.79 710.73 683.65
  C 716.97 681.44 732.68 711.50 724.51 718.27
  C 721.64 720.65 716.21 722.21 712.49 720.28
  Z"
/>
<path fill="#cecece" d="
  M 810.80 695.98
  Q 814.13 704.14 815.19 707.80
  C 816.96 713.87 808.46 712.50 805.41 711.15
  C 801.94 709.61 784.10 698.99 789.49 694.27
  Q 791.39 692.61 798.31 687.41
  C 806.49 681.25 808.62 690.63 810.80 695.98
  Z"
/>
<path fill="#cecece" d="
  M 845.96 723.79
  C 847.68 723.49 852.13 716.77 853.39 715.10
  C 862.15 703.48 876.48 743.88 878.31 748.85
  A 0.56 0.55 82.1 0 1 877.75 749.60
  C 858.05 748.05 841.32 738.07 823.84 726.65
  C 821.88 725.36 818.83 722.93 821.20 720.18
  C 826.65 713.87 831.88 705.93 841.50 706.81
  C 847.73 707.39 845.82 719.21 845.34 723.20
  A 0.53 0.53 0.0 0 0 845.96 723.79
  Z"
/>
<circle fill="#2b8cf8" cx="1174.50" cy="741.87" r="22.32" />
<circle fill="#2b8cf8" cx="274.98" cy="761.28" r="14.55"/>
<circle fill="#faa80a" cx="1272.75" cy="782.93" r="19.40"/>
<path fill="#515151" d="
  M 460.80 945.52
  C 472.95 899.47 476.90 852.66 473.68 805.16
  A 0.40 0.40 0.0 0 1 474.45 804.98
  Q 479.08 815.83 483.09 826.84
  C 500.91 875.64 485.15 918.54 457.46 959.26
  A 0.33 0.33 0.0 0 1 456.87 958.97
  Q 458.99 952.38 460.80 945.52
  Z"
/>
<circle fill="#faa80a" cx="1163.44" cy="820.49" r="7.66"/>
<path fill="#515151" d="
  M 644.86 976.99
  C 647.01 921.88 677.50 871.17 726.19 844.93
  C 748.73 832.78 779.03 826.31 804.33 832.50
  A 0.72 0.72 0.0 0 1 804.78 833.57
  C 803.74 835.31 796.95 838.57 794.85 839.88
  Q 747.94 868.90 707.03 907.54
  C 686.33 927.10 670.81 947.51 661.82 974.90
  Q 651.99 1004.80 650.37 1035.84
  A 0.38 0.38 0.0 0 1 649.62 1035.88
  C 646.32 1016.18 644.09 996.80 644.86 976.99
  Z"
/>
<path fill="#515151" d="
  M 571.09 864.02
  C 561.24 861.48 566.31 844.60 570.37 839.55
  A 1.51 1.50 -47.9 0 1 572.61 839.43
  C 577.16 844.02 582.64 860.13 574.39 863.77
  Q 572.81 864.47 571.09 864.02
  Z"
/>
<ellipse fill="#100e0d" cx="0.00" cy="0.00" transform="translate(954.05,848.92) rotate(-21.8)" rx="5.43" ry="4.78"/>
<circle fill="#e40041" cx="1195.36" cy="872.05" r="14.77"/>
<circle fill="#2b8cf8" cx="1059.32" cy="922.97" r="15.10"/>
<path fill="#515151" d="
  M 526.57 1000.07
  C 532.00 986.62 536.00 971.02 534.30 956.83
  Q 532.65 943.02 528.61 929.37
  A 0.54 0.52 61.4 0 1 528.76 928.82
  Q 529.46 928.21 530.34 929.35
  Q 550.54 955.48 549.49 988.74
  C 548.58 1017.49 529.98 1039.65 513.31 1061.18
  A 1.28 1.28 0.0 0 1 511.46 1061.36
  L 506.86 1057.35
  Q 506.48 1057.01 506.38 1056.51
  C 505.38 1051.38 510.72 1038.88 512.83 1033.82
  Q 516.34 1025.43 526.57 1000.07
  Z"
/>
<path fill="#cecece" d="
  M 895.76 1077.00
  C 990.90 1053.43 1083.61 1006.63 1157.03 940.53
  Q 1165.59 932.82 1168.47 930.21
  Q 1170.41 928.45 1168.72 930.46
  Q 1155.93 945.65 1141.48 959.23
  C 1082.64 1014.56 1010.21 1057.63 931.27 1076.79
  Q 922.55 1078.91 893.51 1083.54
  Q 874.77 1086.53 850.54 1087.68
  C 848.73 1087.77 845.23 1088.49 842.52 1088.19
  Q 841.24 1088.05 842.51 1087.83
  Q 873.07 1082.63 895.76 1077.00
  Z"
/>
<path fill="#515151" d="
  M 595.13 946.71
  C 600.64 970.66 600.93 996.88 596.89 1021.08
  C 592.08 1049.94 570.80 1065.06 547.98 1079.91
  A 0.44 0.44 0.0 0 1 547.41 1079.26
  C 568.80 1053.61 584.61 1025.74 587.50 991.76
  C 588.76 976.99 589.81 962.05 592.85 947.52
  Q 593.27 945.51 594.55 946.03
  A 0.97 0.96 4.9 0 1 595.13 946.71
  Z"
/>
<path fill="#515151" d="
  M 706.48 1002.75
  C 707.24 1022.18 694.82 1035.82 677.95 1043.03
  Q 676.94 1043.47 677.59 1042.58
  Q 688.86 1027.16 699.86 1011.68
  C 701.70 1009.09 703.64 1005.45 705.88 1002.56
  A 0.34 0.33 -27.2 0 1 706.48 1002.75
  Z"
/>
<path fill="#515151" d="
  M 649.37 1070.82
  C 648.60 1078.40 644.96 1115.50 634.77 1116.33
  C 630.97 1116.64 625.96 1114.90 622.34 1113.80
  A 1.24 1.24 0.0 0 1 621.69 1111.91
  C 632.04 1097.00 640.00 1081.46 648.36 1065.33
  A 0.85 0.84 52.8 0 1 649.94 1065.55
  C 650.29 1067.18 649.51 1069.40 649.37 1070.82
  Z"
/>
</svg>
